<svg fill="none" height="39" viewBox="0 0 250 39" width="250" xmlns="http://www.w3.org/2000/svg"><g fill="#f26f63"><path d="m28.2497 12.8357c-2.0907-.016-4.0881.8643-5.4867 2.4183-.057.0615-.1369.0965-.2207.0968-.028.0044-.0566.0044-.0846 0-.1094-.0324-.1912-.1236-.2116-.2358-.19-1.0392-1.096-1.7938-2.1524-1.7926h-3.6276c-1.2071 0-2.1856.9785-2.1856 2.1856v18.954c0 1.2677 1.0268 2.2958 2.2945 2.2975h3.4431c1.2682-.0017 2.2958-1.0293 2.2975-2.2975v-10.5804c0-2.5393 1.1487-4.0538 3.0743-4.0538 1.9801 0 2.9837 1.2545 2.9837 3.7273v10.916c0 1.2677 1.0268 2.2958 2.2945 2.2975h3.5822c1.2681-.0017 2.2958-1.0293 2.2974-2.2975v-12.6723c.0121-5.529-3.1711-8.9631-8.298-8.9631z"/><path d="m51.2545 36.9288c-4.6584 0-8.0562-1.3694-10.0937-4.0719-.4482-.6024-.562-1.3904-.3023-2.0949.2572-.7222.8605-1.2665 1.6052-1.4481l3.3253-.798c.1771-.0435.3588-.0658.5411-.0665.7074-.0056 1.3735.3325 1.7866.9069.6923.9764 1.8501 1.5115 3.2648 1.5115 1.6082 0 2.3307-.7709 2.3307-1.5357 0-.9885-1.8289-1.3422-4.1505-1.7926l-.6197-.1179c-4.4317-.8344-8.5309-2.2884-8.5309-7.237 0-4.3924 4.4771-7.7056 10.4112-7.7056 4.3863 0 7.6451 1.3755 9.6735 4.081.3217.4267.409.9859.2327 1.4903-.1744.5015-.5888.8818-1.1033 1.0127l-4.1234 1.0641c-.1212.0326-.2463.0489-.3718.0484-.5088-.0047-.9849-.2517-1.2817-.6651-.65-.8736-1.7564-1.3754-3.023-1.3754-1.4813 0-2.3307.5078-2.3307 1.3966 0 .7557 1.324 1.055 4.078 1.6112l.5532.1119c4.1233.795 8.8573 2.367 8.8573 7.5181.009 4.0478-3.679 8.156-10.7286 8.156z"/><path d="m80.8857 18.6184c0 .9288-.752 1.6822-1.6807 1.6838h-3.4281c-.1669 0-.3023.1354-.3023.3023v7.6421c-.0374.9879.3231 1.9494 1.0006 2.6693.7438.7227 1.7545 1.1038 2.7902 1.052.2481.0136.4655.1707.5563.4021.2531.5873.2138 1.2598-.1058 1.8137l-.5533.7467-.0241.0333c-.5411.7315-1.1457 1.5538-1.448 1.9165-.7779.8851-1.9119 1.3744-3.0895 1.3332-.1451 0-.3023 0-.4625-.0212-2.0224-.1632-4.1717-1.4057-5.1119-2.9504-1.0611-1.7443-1.5961-3.9299-1.5961-6.5055v-8.1318c0-.1669-.1354-.3023-.3023-.3023h-1.8319c-.9288-.0016-1.6808-.755-1.6808-1.6838v-3.6275c-.0016-.4471.1747-.8765.49-1.1935.3152-.317.7437-.4956 1.1908-.4964h1.844c.1669 0 .3023-.1353.3023-.3023v-3.20129c-.0008-1.19665.6567-2.29674 1.711-2.86276l4.1082-2.19468c.2183-.11784.4623-.18014.7104-.18138.2725.00149.5396.07558.7739.21463.4537.27331.7312.76417.7315 1.29384v6.93164c0 .167.1354.3023.3023.3023h3.422c.9288.0017 1.6808.7551 1.6808 1.6838z"/><path d="m234.253 18.6516c-.001.9292-.754 1.6821-1.683 1.6838h-3.429c-.166 0-.302.1353-.302.3023v7.6451c-.057 1.0156.327 2.0064 1.053 2.719s1.724 1.0778 2.738 1.0022c.248.0116.466.1679.556.3991.253.5871.215 1.259-.103 1.8138l-.55.7376-.027.0362c-.535.7256-1.143 1.5478-1.442 1.8954-.777.8843-1.91 1.3735-3.086 1.3332-.152 0-.303 0-.466-.0212-2.019-.1632-4.169-1.4057-5.109-2.9504-1.061-1.7473-1.599-3.9299-1.599-6.5055v-8.1045c0-.167-.135-.3023-.302-.3023h-1.841c-.929-.0017-1.682-.7546-1.684-1.6838v-3.6427c.002-.9288.755-1.6808 1.684-1.6808h1.841c.167 0 .302-.1353.302-.3023v-3.05018c-.002-1.28403.705-2.46433 1.838-3.06832l6.197-3.32527v9.44077c0 .1669.136.3023.302.3023h3.429c.928 0 1.682.752 1.683 1.6808z"/><path d="m249.568 34.2289-.547.7377-.028.0362c-.535.7255-1.142 1.5478-1.442 1.8954-.777.8851-1.911 1.3744-3.089 1.3332-.151 0-.302 0-.463-.0212-2.019-.1632-4.168-1.4057-5.108-2.9504-1.061-1.7473-1.6-3.9299-1.6-6.5055v-18.77868c-.002-1.28403.705-2.46433 1.838-3.06832l6.197-3.32527v24.69767c-.036.9884.325 1.9501 1.004 2.6693.743.7219 1.753 1.1029 2.787 1.052.248.0116.466.1679.557.399.257.5919.217 1.2707-.106 1.8289z"/><path d="m106.638 19.5889c-.006.2554-.164.4822-.402.5774-.067.027-.139.0414-.211.0423-.132.0009-.257-.0528-.348-.1481-.828-.8374-2.977-1.445-5.112-1.445-1.2702-.029-2.5306.2326-3.6847.7648-3.9299 2.0072-4.347 4.5737-4.347 9.5586v5.8706c-.0017 1.0662-.8656 1.9301-1.9317 1.9317h-3.9873c-1.0662-.0016-1.93-.8655-1.9317-1.9317v-19.9969c0-.8348.6767-1.5115 1.5115-1.5115h4.7974c.8348 0 1.5115.6767 1.5115 1.5115v.269c-.0008.1292.0806.2446.2026.2872.0321.0106.0659.0157.0997.0151.0931.0005.1811-.0419.2388-.1149.6046-.7617 2.9142-3.2436 7.5579-3.2436 1.134.0071 2.264.143 3.367.4051.46.1058 2.754.6953 2.754 1.844z"/><path d="m120.351 34.6192c0 1.1687-.948 2.1161-2.116 2.1161h-3.159c-1.191-.0024-2.242-.7789-2.594-1.9166-.033-.1053-.121-.1841-.23-.2055-.019-.003-.038-.003-.057 0-.09-.0002-.176.0397-.233.1088-1.318 1.6091-3.301 2.525-5.381 2.4849-5.118 0-8.162-3.3676-8.162-9.0115-.0095-1.1911.0571-2.3815.1995-3.5641.0031-.0231.0031-.0464 0-.0695.0239-.5366.3024-1.0297.7497-1.3271.7748-.6111 1.7338-.9425 2.7208-.9402.442.0024.883.0592 1.312.1693 2.046.523 3.174 1.7806 3.174 3.5399v.5139c0 2.4426.958 3.682 2.845 3.682 1.886 0 2.887-1.3331 2.887-3.9631v-11.185c.001-.956.776-1.7305 1.732-1.7322h4.583c.955.0017 1.729.7767 1.729 1.7322z"/><path d="m160.843 34.3472c0 1.3156-1.066 2.3821-2.382 2.3821h-3.364c-1.315-.0017-2.381-1.0672-2.382-2.3821v-10.8283c0-1.5992-.303-3.7274-2.797-3.7274-1.318 0-2.887.7044-2.887 4.0539v10.5018c-.001 1.3161-1.069 2.3821-2.385 2.3821h-3.361c-1.316 0-2.382-1.0665-2.382-2.3821v-10.8283c0-2.5091-.907-3.7274-2.797-3.7274-1.889 0-2.935 1.439-2.935 4.0539v10.5018c-.002 1.3149-1.067 2.3804-2.382 2.3821h-3.271c-1.315 0-2.382-1.0665-2.382-2.3821v-18.7425c0-1.2676 1.027-2.2958 2.294-2.2974h3.398c1.122-.0033 2.081.8069 2.265 1.9135.018.1153.102.2095.214.2418.028.0047.057.0047.085 0 .087-.0008.17-.0394.227-.1058 1.416-1.6446 3.492-2.5713 5.662-2.5272 2.944 0 5.096 1.0702 6.396 3.1802.052.0862.144.1406.245.1451.097.0003.188-.0458.245-.1239 1.507-2.0442 3.908-3.2361 6.448-3.2014 5.221 0 8.216 3.2679 8.216 8.9632z"/><path clip-rule="evenodd" d="m188.443 27.4094h-16.396v.003c-.106.0009-.203.0562-.257.1463-.054.09-.058.2017-.009.2951.867 1.6777 2.503 2.5846 4.619 2.5846 1.062.0205 2.106-.2831 2.992-.8706.764-.5234 1.668-.8047 2.594-.8071.659-.0009 1.309.1512 1.899.4443l.178.0877c.903.452 1.515 1.3324 1.623 2.3368.111.9831-.287 1.9547-1.055 2.5786-2.237 1.8138-5.045 2.7206-8.37 2.7206-7.286 0-12.37-5.009-12.37-12.1825 0-6.832 5.411-12.1857 12.321-12.1857 7.092 0 12.231 5.0847 12.231 12.0919zm-12.185-8.4008c-1.687-.0473-3.278.7776-4.211 2.1825l.012.0031c-.061.0926-.067.2112-.014.3089.052.0978.154.1591.265.1596h7.823c.107 0 .206-.0563.26-.1481.054-.0935.054-.2088 0-.3023-.81-1.442-2.231-2.2037-4.135-2.2037z" fill-rule="evenodd"/><path d="m214.278 34.4619c-.002 1.2632-1.026 2.2867-2.289 2.2884h-3.6c-1.263-.0017-2.287-1.0252-2.289-2.2884v-10.919c0-2.4758-1.003-3.7303-2.98-3.7303-1.926 0-3.078 1.5115-3.078 4.0568v10.5925c-.001 1.2632-1.025 2.2867-2.288 2.2884h-3.458c-1.263-.0017-2.287-1.0252-2.289-2.2884v-19.0447c0-1.1687.948-2.1161 2.116-2.1161h3.773c1.036.0029 1.917.7551 2.083 1.7775.018.1145.1.2085.211.2418.029.0047.059.0047.088 0 .084-.0002.164-.0353.221-.0967 1.4-1.5432 3.391-2.4162 5.474-2.4002 5.139 0 8.314 3.4341 8.314 8.9631z"/><path d="m1.97399 13.3013h5.36275c.71123 0 1.28779.5765 1.28779 1.2878v20.8585c0 .7112-.57656 1.2878-1.28779 1.2878h-5.36275c-.70956 0-1.284767-.5752-1.284767-1.2848v-20.8585c-.001608-.3418.13304-.6701.374157-.9124.24111-.2422.56882-.3784.91061-.3784z"/><path d="m7.92927 1.38754c-.81922-.834337-1.92866-1.260577-3.29504-1.260577-1.21195-.04793-2.38958.408458-3.25272 1.260577-.836854.87986-1.282728 2.06049-1.236398 3.27389-.0761393 1.21233.372314 2.39893 1.231248 3.25786.85894.85894 2.04554 1.30739 3.25787 1.23125 1.36638 0 2.47279-.41717 3.29504-1.23942.84145-.86734 1.28958-2.0423 1.23942-3.24969.04657-1.214-.40057-2.39509-1.23942-3.27389z"/></g></svg>